PathFileType	4	(X/Y/Z)	 s04c0101.trc
DataRate	CameraRate	NumFrames	NumMarkers	Units	OrigDataRate	OrigDataStartFrame	OrigNumFrames
200	200	5	51	mm	200	1251	2000
Frame#	Time	racr			lacr			c7			jug			rlel			rdr			llel			ldr			s2			lic			ric			lasi			rasi			rpsi			lpsi			rgt			lgt			rth1			rth2			rth3			rth4			rlfc			rmfc			rsh1			rsh2			rsh3			rsh4			rlmal			rmmal			rcal			rtoe			rmt5			lth1			lth2			lth4			lth3			llfc			lmfc			lsh1			lsh2			lsh3			lsh4			llmal			lmmal			lcal			ltoe			lmt1			lmt5			SBIKE			LBIKE			RBIKE			
		X1	Y1	Z1	X2	Y2	Z2	X3	Y3	Z3	X4	Y4	Z4	X5	Y5	Z5	X6	Y6	Z6	X7	Y7	Z7	X8	Y8	Z8	X9	Y9	Z9	X10	Y10	Z10	X11	Y11	Z11	X12	Y12	Z12	X13	Y13	Z13	X14	Y14	Z14	X15	Y15	Z15	X16	Y16	Z16	X17	Y17	Z17	X18	Y18	Z18	X19	Y19	Z19	X20	Y20	Z20	X21	Y21	Z21	X22	Y22	Z22	X23	Y23	Z23	X24	Y24	Z24	X25	Y25	Z25	X26	Y26	Z26	X27	Y27	Z27	X28	Y28	Z28	X29	Y29	Z29	X30	Y30	Z30	X31	Y31	Z31	X32	Y32	Z32	X33	Y33	Z33	X34	Y34	Z34	X35	Y35	Z35	X36	Y36	Z36	X37	Y37	Z37	X38	Y38	Z38	X39	Y39	Z39	X40	Y40	Z40	X41	Y41	Z41	X42	Y42	Z42	X43	Y43	Z43	X44	Y44	Z44	X45	Y45	Z45	X46	Y46	Z46	X47	Y47	Z47	X48	Y48	Z48	X49	Y49	Z49	X50	Y50	Z50	X51	Y51	Z51	
1251	6.2550	512.579198	1375.871982	-101.581733	521.835480	1371.417863	-366.182895	478.105878	1434.009656	-235.737469	455.874433	1273.718455	-246.955956	468.598987	1081.304935	40.159256	687.506230	916.891194	-73.803877	484.877314	1109.295378	-518.308483	698.126152	919.824455	-450.030641	-74.092981	1183.226482	-263.721037	86.452767	1215.517772	-414.121781	72.412136	1195.763445	-96.750083	123.165937	1167.021650	-369.438273	116.759057	1157.898036	-122.150459	-50.622773	1228.279146	-217.489061	-51.850684	1233.928603	-291.668654	31.526696	1127.548507	-86.819833	57.608592	1126.938570	-449.651979	130.466754	991.972776	-72.612237	195.230211	931.385769	-80.632741	222.740612	851.283988	-88.059486	223.669796	952.181400	-93.222911	293.600283	722.510937	-112.427198	270.191188	699.253849	-223.462774	259.290774	601.978318	-83.305481	274.685808	508.372091	-100.530552	237.372058	430.751442	-107.426237	306.159550	507.734410	-124.532021	226.809117	276.072050	-113.926171	248.923220	288.426853	-198.619681	163.225154	239.787135	-150.927096	464.244649	242.994062	-148.631808	400.423394	213.353563	-91.839108	129.203778	1064.500657	-457.700573	213.147997	1043.291995	-460.363343	230.160716	1071.136351	-444.689993	276.811774	981.348243	-469.626821	388.993763	874.611073	-449.553714	412.654908	843.430474	-340.711226	324.584279	779.197532	-474.173887	276.173644	711.452717	-447.711515	196.803201	670.533926	-446.318544	295.488460	696.013096	-417.896176	86.256880	577.569093	-439.200843	83.024865	580.553722	-351.320675	7.416262	605.650106	-397.201322	239.286102	409.523971	-401.824717	167.066326	435.083326	-352.734201	161.429759	425.558191	-463.808702	-179.138733	941.240754	-276.241549	-4.347017	86.172473	-483.645523	-15.811188	80.348910	-83.077050	
1252	6.2600	513.440638	1376.712010	-102.880087	522.708263	1372.973591	-366.674820	478.457023	1434.998249	-236.713151	457.559652	1274.581495	-248.433519	470.465866	1082.767325	40.403868	688.147707	916.580627	-73.459060	485.902211	1110.212760	-516.916062	698.160650	920.775344	-449.470630	-73.562059	1184.321214	-261.943122	85.805733	1217.772354	-413.177185	73.736155	1196.576774	-95.029261	122.588315	1169.013204	-368.580276	118.421562	1159.191349	-120.748315	-49.396134	1228.958698	-215.719831	-50.952190	1235.278162	-289.934730	32.231439	1127.429231	-86.197411	57.824629	1131.305447	-449.421414	127.919872	989.713952	-71.469096	190.974340	927.462243	-78.968665	216.263467	846.579351	-86.572618	219.990030	947.396346	-91.687421	284.362334	716.214926	-111.061166	260.636203	693.129876	-221.935180	251.341571	596.321568	-82.364459	266.155362	502.307935	-99.521997	229.229130	424.519359	-106.738648	297.671892	502.014667	-123.397946	219.541671	269.618811	-113.839576	242.266692	281.997606	-198.353061	156.312787	233.805155	-150.326219	457.165541	233.899443	-149.165893	393.159215	205.137038	-92.244510	129.999193	1069.531585	-457.622909	214.308649	1049.854917	-460.227291	230.781395	1077.994569	-444.473172	279.133803	989.105819	-469.762489	393.728121	884.288942	-450.173577	418.640709	853.172668	-341.330392	330.310729	788.574425	-474.185137	282.316503	720.448004	-447.560519	203.235996	679.099198	-446.088906	301.792342	705.168429	-417.861789	93.236297	585.499783	-438.737574	89.933264	588.215016	-351.019411	14.309956	613.030055	-396.620050	246.695001	417.810738	-401.306924	174.634275	443.324751	-352.540231	168.870583	433.666049	-463.335406	-179.127994	941.300592	-276.103207	-4.347806	86.197410	-483.639095	-15.802903	80.338973	-83.055200	
1253	6.2650	514.306619	1377.364378	-104.044025	523.647662	1374.191837	-367.022597	478.775607	1435.885045	-237.453713	459.128400	1275.373323	-249.776125	472.314590	1084.062890	40.433672	688.835575	916.198226	-73.194053	486.523252	1111.367308	-515.991576	698.060728	921.810346	-449.319065	-73.019835	1185.363747	-260.339280	85.059174	1219.753228	-412.380177	75.180525	1196.762565	-93.915251	122.113820	1170.933934	-368.148524	119.816695	1159.505739	-120.103188	-48.418854	1229.495789	-213.887962	-50.781642	1236.388123	-287.777542	32.952674	1127.195900	-85.684144	57.903709	1135.420090	-449.163493	125.201647	987.715842	-70.253559	186.774080	923.936712	-77.287309	209.643755	842.312305	-85.033302	216.246760	943.030493	-89.995830	275.278795	710.707467	-109.421889	251.610130	687.735487	-220.328003	243.443458	591.043384	-81.405436	257.737496	496.905820	-98.164301	220.819618	418.821417	-106.384609	289.451030	496.506816	-121.926052	211.957023	263.798625	-113.826238	235.187378	276.378174	-198.135931	148.985904	228.837443	-150.671641	449.848996	225.635315	-149.336786	385.582408	197.539402	-92.322181	130.738433	1074.259460	-457.642411	215.117721	1055.846263	-459.557401	231.294313	1084.679849	-444.289490	281.386353	996.958344	-470.042732	398.652304	894.182490	-449.933991	424.823311	864.076081	-339.190775	335.964586	797.990328	-473.986373	288.673486	729.595675	-447.501663	210.153608	687.545036	-445.599688	308.375847	714.420884	-417.872816	100.757271	592.990100	-438.261481	97.203710	595.927440	-350.754016	21.539677	620.289150	-396.305127	254.888398	425.392317	-401.222778	182.744249	450.977569	-352.577844	177.472880	441.675553	-463.348842	-179.101031	941.343986	-275.972504	-4.360229	86.283491	-483.633657	-15.800308	80.343888	-83.053150	
1254	6.2700	514.961143	1378.134581	-105.284214	524.431433	1375.177619	-367.278550	479.065314	1436.638560	-237.977491	460.455624	1276.055404	-250.740197	474.079334	1085.174421	40.189692	689.454306	915.726433	-73.017693	486.359276	1112.364136	-515.541919	697.764245	922.829386	-449.053188	-72.570571	1186.312683	-260.275857	83.985807	1221.529760	-411.588274	76.616598	1196.893344	-93.246957	121.571715	1172.778321	-367.816609	121.063445	1159.624063	-119.932544	-47.540058	1229.902931	-212.119310	-50.410566	1236.906281	-286.220476	33.635257	1126.914616	-85.223295	57.890368	1139.208701	-448.874092	122.423892	985.981023	-68.480914	182.641262	920.999176	-75.423701	203.413555	838.536189	-83.129001	212.361083	939.456002	-87.144535	266.564974	705.696544	-107.704163	243.057206	683.137365	-218.699842	235.649330	586.159930	-80.431173	249.122239	491.945323	-96.841161	212.479551	414.073076	-105.423868	281.091833	491.796510	-120.603321	204.143226	258.733899	-113.932181	228.036578	271.370869	-197.955811	141.288558	224.676306	-151.073733	442.130612	217.797025	-149.473590	377.596463	190.378612	-92.503512	131.359294	1078.879625	-457.724169	216.110126	1062.111628	-459.560841	231.821996	1091.391427	-444.506160	283.583065	1004.654650	-470.379237	403.237881	903.995531	-450.220825	429.425355	873.904992	-341.074522	341.708036	807.655952	-474.280144	295.166880	738.674083	-447.443830	217.119577	695.722916	-444.767771	315.132192	723.588923	-417.961708	108.630364	600.008015	-437.624328	104.553172	602.186930	-350.108642	29.564298	627.004904	-395.582025	263.575513	432.521855	-400.938925	191.584789	458.015036	-352.468092	186.266219	449.063475	-463.289675	-179.085038	941.401457	-275.883923	-4.366893	86.348349	-483.595964	-15.804013	80.360881	-83.045625	
1255	6.2750	515.572665	1378.740505	-106.506112	525.094705	1375.696377	-367.556997	479.387268	1437.175431	-238.463103	461.466458	1276.556367	-251.533359	475.752387	1086.198847	39.837729	690.059751	915.385584	-72.958780	485.450061	1113.065255	-515.428737	697.372866	923.638004	-448.946557	-72.203525	1186.757817	-258.865694	83.014890	1223.068656	-411.012849	77.943392	1196.930929	-93.054171	120.932197	1174.451358	-367.858404	121.949347	1159.253528	-120.090082	-46.582197	1229.933857	-210.450834	-50.772965	1237.703189	-283.913179	34.118676	1126.801079	-84.456957	57.743982	1142.609751	-448.467953	119.797243	984.604606	-67.132302	178.462722	918.179279	-73.497802	197.655142	835.259704	-80.973886	208.736580	935.979265	-85.419630	258.158818	701.242187	-105.867249	235.213900	679.179599	-217.141737	228.012084	581.687373	-79.444432	240.522413	487.625009	-95.828525	204.082143	409.715950	-104.949116	272.711738	487.552057	-119.305452	196.196481	254.252782	-114.148026	220.732011	266.913056	-197.849253	133.447745	221.236705	-151.562514	434.249346	210.282095	-149.592782	369.180399	183.564323	-92.748063	131.938641	1083.222951	-457.804711	217.004044	1068.278885	-459.674316	232.006282	1097.872887	-444.696898	285.572023	1012.226461	-470.737672	407.675866	913.739556	-450.451031	434.733553	884.386528	-341.410411	347.536570	817.294581	-474.247907	301.803604	747.633370	-447.383812	224.271320	703.865728	-444.478442	322.084235	732.675193	-418.009790	116.896368	606.624241	-436.898401	112.846062	608.351407	-349.585634	37.851658	632.905138	-394.872445	272.728370	439.284324	-400.563175	199.961719	464.408196	-352.346374	195.198730	455.838548	-462.779252	-179.069767	941.476097	-275.851165	-4.377753	86.396063	-483.586028	-15.794191	80.362181	-83.040812	
